<svg width="189" height="30" xmlns="http://www.w3.org/2000/svg"><g fill="none" fill-rule="evenodd"><g fill="#FEFDFB" fill-rule="nonzero"><path d="M7.79 11.02h1.809c-.069-.636-.233-1.185-.494-1.648a3.667 3.667 0 00-.996-1.15A4.116 4.116 0 006.71 7.55a6.376 6.376 0 00-1.696-.218c-.836 0-1.569.148-2.2.445A4.394 4.394 0 001.245 9a5.212 5.212 0 00-.936 1.823A7.915 7.915 0 000 13.07c0 .8.106 1.536.319 2.206.212.67.527 1.246.945 1.73.418.483.939.855 1.562 1.118.624.262 1.34.393 2.148.393 1.357 0 2.429-.359 3.217-1.077.788-.718 1.278-1.74 1.47-3.065H7.871c-.11.828-.407 1.47-.894 1.926-.486.456-1.161.684-2.024.684-.549 0-1.021-.11-1.419-.332a2.767 2.767 0 01-.966-.88 3.902 3.902 0 01-.544-1.253 6 6 0 01-.175-1.45c0-.539.055-1.06.164-1.564.11-.504.291-.95.545-1.336a2.83 2.83 0 011.017-.932c.425-.235.953-.352 1.583-.352.74 0 1.33.186 1.768.559.438.373.726.897.863 1.574zm4.776 1.925c0-.649.086-1.225.257-1.73a3.74 3.74 0 01.71-1.273 3.021 3.021 0 011.058-.787 3.13 3.13 0 011.284-.27c.453 0 .88.09 1.285.27.404.18.757.442 1.059.787.301.345.537.77.709 1.274.171.504.257 1.08.257 1.73 0 .648-.086 1.225-.257 1.729a3.626 3.626 0 01-.71 1.264 3.078 3.078 0 01-1.058.776 3.13 3.13 0 01-1.285.27c-.452 0-.88-.09-1.284-.27a3.078 3.078 0 01-1.059-.776 3.626 3.626 0 01-.709-1.264c-.171-.504-.257-1.08-.257-1.73zm-1.85 0c0 .788.11 1.52.33 2.196.219.677.547 1.267.986 1.771.438.504.98.898 1.624 1.18.644.284 1.384.425 2.22.425.85 0 1.592-.141 2.23-.424a4.562 4.562 0 001.613-1.18 5.022 5.022 0 00.987-1.772c.219-.677.329-1.408.329-2.196 0-.787-.11-1.522-.33-2.206a5.009 5.009 0 00-.986-1.781 4.673 4.673 0 00-1.613-1.191c-.638-.29-1.38-.435-2.23-.435-.836 0-1.576.145-2.22.435a4.65 4.65 0 00-1.624 1.191 5.009 5.009 0 00-.987 1.781 7.183 7.183 0 00-.329 2.206zM22.77 7.581V18.29h1.747v-6.67c0-.207.051-.466.154-.777a2.964 2.964 0 011.377-1.647c.363-.207.798-.31 1.305-.31.398 0 .723.058.977.176.253.117.455.283.606.497.15.214.257.466.319.756.061.29.092.607.092.953v7.022h1.747v-6.67c0-.829.247-1.492.74-1.989.493-.497 1.172-.745 2.035-.745.425 0 .77.062 1.038.186.267.124.476.293.627.507.15.214.253.467.308.757.055.29.082.6.082.932v7.022h1.748v-7.85c0-.553-.086-1.026-.257-1.42a2.487 2.487 0 00-.72-.963 2.996 2.996 0 00-1.11-.549 5.523 5.523 0 00-1.449-.176c-.699 0-1.34.159-1.922.476a3.722 3.722 0 00-1.408 1.347c-.219-.663-.596-1.133-1.13-1.409a3.836 3.836 0 00-1.788-.414c-1.494 0-2.638.608-3.433 1.823h-.04V7.58h-1.645zm24.59 4.329h-6.104c.027-.415.116-.805.267-1.17.15-.367.356-.688.616-.964s.573-.493.936-.652c.363-.159.77-.238 1.223-.238a2.969 2.969 0 012.785 1.843c.157.373.25.766.277 1.18zm1.686 2.983h-1.727c-.15.704-.462 1.229-.935 1.574-.473.345-1.08.518-1.82.518-.575 0-1.075-.097-1.5-.29a2.942 2.942 0 01-1.048-.777 3.033 3.033 0 01-.596-1.119 4.282 4.282 0 01-.164-1.336h7.954a8.59 8.59 0 00-.175-2.05 5.963 5.963 0 00-.78-1.989 4.672 4.672 0 00-1.501-1.502c-.624-.393-1.408-.59-2.354-.59a4.8 4.8 0 00-2.004.414 4.712 4.712 0 00-1.582 1.16 5.355 5.355 0 00-1.038 1.76c-.247.678-.37 1.423-.37 2.238.027.815.147 1.567.36 2.258a4.94 4.94 0 00.955 1.781c.425.497.95.884 1.573 1.16.623.276 1.36.414 2.21.414 1.205 0 2.205-.303 3-.911.795-.608 1.309-1.512 1.542-2.713zm4.077-7.312V4.37h-1.747v3.21h-1.809v1.554h1.809v6.815c0 .497.048.897.144 1.201.096.304.243.539.442.705.198.165.459.28.78.341.323.062.71.094 1.162.094h1.336v-1.554h-.801c-.274 0-.497-.01-.668-.031a.858.858 0 01-.401-.135.512.512 0 01-.196-.29 1.936 1.936 0 01-.05-.497V9.134h2.116V7.581h-2.117zm10.758 3.77h2.857c-.041-.691-.206-1.288-.494-1.792a4.036 4.036 0 00-1.12-1.264 4.84 4.84 0 00-1.562-.756 6.614 6.614 0 00-1.819-.248c-.863 0-1.63.145-2.302.435-.672.29-1.24.693-1.706 1.211a5.206 5.206 0 00-1.059 1.844 7.185 7.185 0 00-.36 2.31c0 .8.13 1.536.391 2.205.26.67.624 1.247 1.09 1.73.465.483 1.03.86 1.695 1.129.665.27 1.395.404 2.19.404 1.41 0 2.569-.373 3.473-1.119.904-.745 1.452-1.83 1.644-3.252h-2.816c-.096.663-.332 1.191-.709 1.585-.377.393-.914.59-1.613.59-.452 0-.836-.103-1.151-.31a2.313 2.313 0 01-.75-.798 3.67 3.67 0 01-.401-1.087 5.861 5.861 0 010-2.393c.082-.407.222-.78.421-1.118.199-.339.456-.615.77-.829.316-.214.707-.321 1.172-.321 1.247 0 1.967.614 2.159 1.843zM68.12 3.5v14.79h2.92v-5.614c0-1.09.177-1.874.534-2.35.356-.477.931-.715 1.726-.715.699 0 1.185.217 1.46.652.274.435.41 1.094.41 1.978v6.049h2.92v-6.587c0-.663-.059-1.267-.175-1.813-.117-.545-.32-1.008-.607-1.388-.288-.38-.682-.676-1.182-.89-.5-.214-1.14-.321-1.922-.321-.548 0-1.11.141-1.685.424-.575.283-1.048.736-1.418 1.357h-.062V3.5h-2.919zm11.745 7.374c.04-.69.212-1.263.513-1.72a3.51 3.51 0 011.151-1.097c.466-.276.99-.473 1.573-.59a8.873 8.873 0 011.757-.176c.535 0 1.076.038 1.624.114a4.939 4.939 0 011.5.445c.453.22.823.528 1.11.922.288.393.432.914.432 1.564v5.571c0 .484.027.946.082 1.388.055.442.151.774.288.995h-2.96a4.247 4.247 0 01-.205-1.036 3.799 3.799 0 01-1.645 1.015c-.63.193-1.274.29-1.932.29-.507 0-.98-.062-1.418-.187a3.238 3.238 0 01-1.151-.58 2.697 2.697 0 01-.77-.994c-.186-.4-.278-.877-.278-1.43 0-.607.106-1.107.318-1.5.213-.394.487-.709.822-.943a3.67 3.67 0 011.151-.528c.432-.118.867-.211 1.306-.28.438-.07.87-.124 1.295-.166a7.732 7.732 0 001.13-.186c.329-.083.59-.204.781-.363.192-.159.281-.39.267-.694 0-.317-.051-.57-.154-.756a1.139 1.139 0 00-.41-.435 1.609 1.609 0 00-.597-.207 4.84 4.84 0 00-.73-.052c-.575 0-1.027.125-1.356.373-.33.249-.52.663-.576 1.243h-2.918zm6.741 2.175c-.123.11-.277.197-.462.259a4.694 4.694 0 01-.596.155 9.069 9.069 0 01-.668.104c-.233.027-.466.062-.7.103-.218.042-.434.097-.647.166a1.909 1.909 0 00-.554.28 1.326 1.326 0 00-.38.445c-.097.18-.145.407-.145.684 0 .262.048.483.144.662.096.18.226.322.39.425.165.104.357.176.576.218.22.041.446.062.679.062.575 0 1.02-.097 1.336-.29.315-.194.548-.425.698-.694.151-.27.244-.542.278-.818.034-.277.051-.497.051-.663v-1.098zm8.559-5.468V4.37h-2.92v3.21H90.48v1.968h1.768v6.318c0 .539.089.974.267 1.305.178.331.421.587.73.766.308.18.664.3 1.069.363.404.062.832.093 1.284.093.288 0 .583-.007.884-.02.301-.014.576-.042.822-.083V16.01a4.06 4.06 0 01-.431.062c-.151.014-.309.02-.473.02-.494 0-.822-.082-.987-.248-.164-.165-.246-.497-.246-.994V9.548h2.137V7.581h-2.137zM136.872 1c1.783 0 2.43.186 3.082.534.652.349 1.163.86 1.512 1.512.348.652.534 1.299.534 3.082v10.744c0 1.783-.186 2.43-.534 3.082a3.635 3.635 0 01-1.512 1.512c-.652.348-1.299.534-3.082.534h-27.744c-1.783 0-2.43-.186-3.082-.534a3.635 3.635 0 01-1.512-1.512c-.348-.652-.534-1.299-.534-3.082V6.128c0-1.783.186-2.43.534-3.082a3.635 3.635 0 011.512-1.512c.652-.348 1.299-.534 3.082-.534h27.744zm-5.308 6.153c-2.292 0-4.01 1.662-4.01 4.483 0 2.817 1.718 4.483 4.01 4.483 2.289 0 4.01-1.662 4.01-4.483 0-2.82-1.721-4.483-4.01-4.483zm-17.244.12h-3.273V16h1.581v-2.949h1.67c2.016 0 3.099-1.21 3.099-2.89 0-1.665-1.07-2.888-3.077-2.888zm8.322 0h-3.273V16h1.581v-3.196h1.61L124.275 16h1.764l-1.888-3.46c1.027-.414 1.568-1.291 1.568-2.476 0-1.666-1.073-2.791-3.076-2.791zm8.922 1.3c1.423 0 2.42 1.078 2.42 3.063 0 1.986-.997 3.064-2.42 3.064-1.419 0-2.42-1.078-2.42-3.064 0-1.985 1.001-3.064 2.42-3.064zm-17.487.02c1.185 0 1.71.64 1.71 1.569 0 .929-.525 1.59-1.701 1.59h-1.458V8.593h1.45zm8.322 0c1.18 0 1.709.542 1.709 1.47 0 .93-.529 1.428-1.7 1.428h-1.458V8.594h1.449z"/></g><text font-family="Roboto-MediumItalic, Roboto" font-size="16" font-style="italic" font-weight="400" fill="#FFF"><tspan x="156" y="18">docs</tspan></text><path stroke="#FFF" stroke-linecap="square" d="M149.5.5v22"/></g></svg>